<svg id="Layer_1" data-name="Layer 1" xmlns="http://www.w3.org/2000/svg" viewBox="0 0 512 512"><defs><style>.cls-1{stroke:#000;stroke-linecap:round;stroke-miterlimit:10;stroke-width:10px;}</style></defs><title>Wall AU/NZ</title><path d="M256,434.36c-98.35,0-178.36-80-178.36-178.36S157.65,77.64,256,77.64s178.36,80,178.36,178.36S354.35,434.36,256,434.36Zm0-348.31c-93.71,0-169.95,76.24-169.95,170s76.24,170,170,170S426,349.71,426,256,349.71,86.05,256,86.05Z"/><path d="M256,401.9c-80.45,0-145.91-65.45-145.91-145.9S175.55,110.1,256,110.1,401.91,175.55,401.91,256,336.45,401.9,256,401.9Zm0-283.39c-75.81,0-137.49,61.68-137.49,137.49S180.19,393.49,256,393.49,393.49,331.81,393.49,256,331.81,118.51,256,118.51Z"/><line class="cls-1" x1="215.86" y1="186.2" x2="169.74" y2="236.59"/><line class="cls-1" x1="291.87" y1="186.2" x2="342.26" y2="236.59"/><line class="cls-1" x1="254.29" y1="276.73" x2="254.29" y2="343.35"/></svg>