<svg id="Layer_1" data-name="Layer 1" xmlns="http://www.w3.org/2000/svg" viewBox="0 0 512 512"><title>ccs1</title><path d="M256,316.63a119.5,119.5,0,1,1,119.49-119.5A119.64,119.64,0,0,1,256,316.63Zm0-231.47a112,112,0,1,0,112,112A112.1,112.1,0,0,0,256,85.16Z"/><path d="M297.43,418.13a33.87,33.87,0,1,1,33.87-33.87A33.9,33.9,0,0,1,297.43,418.13Zm0-60.21a26.35,26.35,0,1,0,26.35,26.34A26.37,26.37,0,0,0,297.43,357.92Z"/><path d="M214.57,418.13a33.87,33.87,0,1,1,33.87-33.87A33.9,33.9,0,0,1,214.57,418.13Zm0-60.21a26.35,26.35,0,1,0,26.34,26.34A26.38,26.38,0,0,0,214.57,357.92Z"/><circle cx="214.57" cy="384.26" r="12.27"/><circle cx="297.43" cy="384.26" r="12.27"/><path d="M305.32,434.36H206.68a49.35,49.35,0,1,1,0-98.7h98.64a49.35,49.35,0,1,1,0,98.7Zm-98.64-91.17a41.83,41.83,0,0,0,0,83.65h98.64a41.83,41.83,0,0,0,0-83.65Z"/><path d="M258.72,288.35a33.11,33.11,0,1,1,33.11-33.11A33.14,33.14,0,0,1,258.72,288.35Zm0-58.86a25.76,25.76,0,1,0,25.75,25.75A25.78,25.78,0,0,0,258.72,229.49Z"/><path d="M295.51,187.09A33.11,33.11,0,1,1,328.62,154,33.14,33.14,0,0,1,295.51,187.09Zm0-58.86A25.75,25.75,0,1,0,321.26,154,25.78,25.78,0,0,0,295.51,128.23Z"/><path d="M317.52,242.85A25.45,25.45,0,1,1,343,217.4,25.48,25.48,0,0,1,317.52,242.85Zm0-43.76a18.31,18.31,0,1,0,18.31,18.31A18.33,18.33,0,0,0,317.52,199.09Z"/><path d="M200,244a25.45,25.45,0,1,1,25.44-25.45A25.47,25.47,0,0,1,200,244Zm0-43.76a18.32,18.32,0,1,0,18.31,18.31A18.33,18.33,0,0,0,200,200.27Z"/><path d="M214.75,187.09A33.11,33.11,0,1,1,247.86,154,33.14,33.14,0,0,1,214.75,187.09Zm0-58.86A25.75,25.75,0,1,0,240.5,154,25.78,25.78,0,0,0,214.75,128.23Z"/><path d="M256,303.77A106.64,106.64,0,1,1,362.64,197.13,106.76,106.76,0,0,1,256,303.77Zm0-204.88a98.25,98.25,0,1,0,98.25,98.24A98.36,98.36,0,0,0,256,98.89Z"/><circle cx="214.75" cy="153.98" r="12"/><circle cx="295.51" cy="153.98" r="12"/><circle cx="258.72" cy="255.24" r="12"/><circle cx="317.52" cy="217.4" r="8.56"/><circle cx="199.95" cy="218.58" r="8.56"/></svg>