<svg id="Layer_1" data-name="Layer 1" xmlns="http://www.w3.org/2000/svg" viewBox="0 0 512 512"><defs><style>.cls-1{fill:none;}</style></defs><title>chademo</title><path d="M254.57,437.43c-100.12-.79-180.93-82.93-180.14-183.1A182.19,182.19,0,0,1,93.8,174.09l.37-47.4L127,94.28l45.15.35C224.45,67.4,290.54,67.93,342.38,96l45.16.36,32.31,32.92-.37,47.41a182.26,182.26,0,0,1,18.1,80.53C436.79,357.36,354.69,438.21,254.57,437.43Zm-151.63-307-.36,45.85-.47.92A173.34,173.34,0,0,0,83.22,254.4c-.75,95.32,76.15,173.48,171.42,174.23S428,352.44,428.78,257.12a173.27,173.27,0,0,0-17.66-77.52l-.46-.93.36-45.85L383.81,105.1l-43.7-.35-1-.53c-49.77-27.32-113.61-27.84-163.86-1.29l-1,.52-43.7-.35Z"/><path d="M170.93,310a54.81,54.81,0,1,1,55.24-54.38A54.87,54.87,0,0,1,170.93,310Zm.72-92a37.21,37.21,0,1,0,36.92,37.5A37.25,37.25,0,0,0,171.65,217.93Z"/><path d="M340.88,311.28a54.81,54.81,0,1,1,55.24-54.37A54.87,54.87,0,0,1,340.88,311.28Zm.73-92a37.21,37.21,0,1,0,36.91,37.5A37.24,37.24,0,0,0,341.61,219.27Z"/><path d="M276.39,315.07l-38.06-.3a13.85,13.85,0,0,0-13.94,13.72l-.26,32.83a13.9,13.9,0,0,0,13.72,13.93l38.06.3a13.89,13.89,0,0,0,13.94-13.72l.26-32.82A13.86,13.86,0,0,0,276.39,315.07Zm-19.08,10.39a3.59,3.59,0,1,1-3.65,3.6A3.6,3.6,0,0,1,257.31,325.46Zm-.31,39.4a3.61,3.61,0,0,1-3.6-3.65,3.6,3.6,0,1,1,7.19.06A3.59,3.59,0,0,1,257,364.86Zm18.6-1.06a3.41,3.41,0,0,1-4.7,0l-13.78-14-14,13.79a3.71,3.71,0,0,1-2.42.92,3.6,3.6,0,0,1-2.34-1,3.32,3.32,0,0,1,0-4.77l14-13.78-13.45-13.67a3.31,3.31,0,0,1,0-4.76,3.35,3.35,0,0,1,4.69,0l13.52,13.74,13.67-13.52a3.34,3.34,0,1,1,4.66,4.8L261.85,345l13.79,14A3.31,3.31,0,0,1,275.6,363.8Z"/><path class="cls-1" d="M275.6,363.8a3.41,3.41,0,0,1-4.7,0l-13.78-14-14,13.79a3.71,3.71,0,0,1-2.42.92,3.6,3.6,0,0,1-2.34-1,3.32,3.32,0,0,1,0-4.77l14-13.78-13.45-13.67a3.31,3.31,0,0,1,0-4.76,3.35,3.35,0,0,1,4.69,0l13.52,13.74,13.67-13.52a3.34,3.34,0,1,1,4.66,4.8L261.85,345l13.79,14A3.31,3.31,0,0,1,275.6,363.8Z"/><path class="cls-1" d="M260.84,329.11a3.59,3.59,0,1,1-3.53-3.65A3.58,3.58,0,0,1,260.84,329.11Z"/><path class="cls-1" d="M260.59,361.27a3.6,3.6,0,1,1-7.19-.06,3.6,3.6,0,1,1,7.19.06Z"/><path d="M277.63,128.4l-38-.3a13.9,13.9,0,0,0-13.94,13.72l-.26,32.82a13.85,13.85,0,0,0,13.72,13.94l38.06.3a13.87,13.87,0,0,0,13.94-13.72l.25-32.82A13.89,13.89,0,0,0,277.63,128.4Zm-19.07,10.39a3.63,3.63,0,1,1-3.66,3.6A3.61,3.61,0,0,1,258.56,138.79Zm-.31,39.4a3.59,3.59,0,1,1,3.58-3.53A3.59,3.59,0,0,1,258.25,178.19Zm18.6-1.06a3.24,3.24,0,0,1-4.7,0l-13.79-14-14,13.78a3.38,3.38,0,0,1-2.42,1,3.39,3.39,0,0,1-2.31-5.79l14-13.78-13.46-13.67a3.33,3.33,0,0,1,0-4.77,3.38,3.38,0,0,1,4.7,0l13.52,13.73,13.67-13.51a3.34,3.34,0,0,1,4.66,4.8L263.1,158.36l13.79,14A3.33,3.33,0,0,1,276.85,177.13Z"/><path class="cls-1" d="M276.85,177.13a3.24,3.24,0,0,1-4.7,0l-13.79-14-14,13.78a3.38,3.38,0,0,1-2.42,1,3.39,3.39,0,0,1-2.31-5.79l14-13.78-13.46-13.67a3.33,3.33,0,0,1,0-4.77,3.38,3.38,0,0,1,4.7,0l13.52,13.73,13.67-13.51a3.34,3.34,0,0,1,4.66,4.8L263.1,158.36l13.79,14A3.33,3.33,0,0,1,276.85,177.13Z"/><path class="cls-1" d="M262.09,142.44a3.6,3.6,0,1,1-3.53-3.65A3.6,3.6,0,0,1,262.09,142.44Z"/><path class="cls-1" d="M261.83,174.66a3.59,3.59,0,0,1-7.18,0,3.59,3.59,0,1,1,7.18,0Z"/></svg>