<svg id="Layer_1" data-name="Layer 1" xmlns="http://www.w3.org/2000/svg" viewBox="0 0 512 512"><title>j-17772</title><path d="M258.72,352.4a33.11,33.11,0,1,1,33.11-33.11A33.14,33.14,0,0,1,258.72,352.4Zm0-58.86a25.75,25.75,0,1,0,25.75,25.75A25.78,25.78,0,0,0,258.72,293.54Z"/><path d="M295.51,251.14A33.11,33.11,0,1,1,328.62,218,33.15,33.15,0,0,1,295.51,251.14Zm0-58.87A25.76,25.76,0,1,0,321.26,218,25.79,25.79,0,0,0,295.51,192.27Z"/><path d="M317.52,306.89A25.45,25.45,0,1,1,343,281.44,25.48,25.48,0,0,1,317.52,306.89Zm0-43.76a18.32,18.32,0,1,0,18.31,18.31A18.34,18.34,0,0,0,317.52,263.13Z"/><path d="M200,308.07a25.45,25.45,0,1,1,25.44-25.44A25.47,25.47,0,0,1,200,308.07Zm0-43.75a18.31,18.31,0,1,0,18.31,18.31A18.33,18.33,0,0,0,200,264.32Z"/><path d="M214.74,251.14A33.11,33.11,0,1,1,247.85,218,33.15,33.15,0,0,1,214.74,251.14Zm0-58.87A25.76,25.76,0,1,0,240.5,218,25.79,25.79,0,0,0,214.74,192.27Z"/><path d="M256,370A108.83,108.83,0,1,1,364.83,261.18,109,109,0,0,1,256,370Zm0-209.1A100.27,100.27,0,1,0,356.26,261.18,100.38,100.38,0,0,0,256,160.91Z"/><circle cx="214.75" cy="218.03" r="12"/><circle cx="295.51" cy="218.03" r="12"/><circle cx="258.72" cy="319.29" r="12"/><circle cx="317.52" cy="281.45" r="8.56"/><circle cx="199.95" cy="282.63" r="8.56"/><path d="M306.9,437.43H205.1v-40A145.48,145.48,0,0,1,202.36,126V74.57h28.51v8.64h52V74.57h28.6v52.14a145.47,145.47,0,0,1-4.54,270.74Zm-93.24-8.56h84.68V391.41l2.87-1a136.9,136.9,0,0,0-2.32-259.2l-7.49-2.46v.18l-5.24-1.21a137.08,137.08,0,0,0-58.67-.42l-5.18,1.12v-.28L213,131.2a136.92,136.92,0,0,0-2.24,259.21l2.87,1Zm77.74-306h11.48V83.13H291.4v8.65H222.31V83.13H210.92v39.73h11.39V99.14H291.4ZM256,115.75a143.7,143.7,0,0,1,26.88,2.52V107.71h-52v10.2A145.58,145.58,0,0,1,256,115.75Zm33.65,305.67H222.39V394.06l5.16,1.08a141.83,141.83,0,0,0,56.91,0l5.15-1.07ZM231,412.86H281v-8.37a150.34,150.34,0,0,1-50.08,0Z"/></svg>