<svg id="Layer_1" data-name="Layer 1" xmlns="http://www.w3.org/2000/svg" viewBox="0 0 512 512"><title>tesla-supercharger</title><path d="M256,290.18a53.85,53.85,0,1,1,53.84-53.84A53.9,53.9,0,0,1,256,290.18Zm0-97.8a44,44,0,1,0,44,44A44,44,0,0,0,256,192.38Z"/><path d="M385.05,290.18a53.85,53.85,0,1,1,53.84-53.84A53.9,53.9,0,0,1,385.05,290.18Zm0-97.8a44,44,0,1,0,43.95,44A44,44,0,0,0,385.05,192.38Z"/><path d="M191.48,397.19a53.85,53.85,0,1,1,53.84-53.84A53.9,53.9,0,0,1,191.48,397.19Zm0-97.8a44,44,0,1,0,44,44A44,44,0,0,0,191.48,299.39Z"/><path d="M320.52,397.19a53.85,53.85,0,1,1,53.85-53.84A53.9,53.9,0,0,1,320.52,397.19Zm0-97.8a44,44,0,1,0,44,44A44,44,0,0,0,320.52,299.39Z"/><path d="M127.73,290.18a53.85,53.85,0,1,1,53.85-53.84A53.9,53.9,0,0,1,127.73,290.18Zm0-97.8a44,44,0,1,0,44,44A44,44,0,0,0,127.73,192.38Z"/><path d="M320.52,177.83a39.3,39.3,0,1,1,39.31-39.29A39.34,39.34,0,0,1,320.52,177.83Zm0-68.7a29.41,29.41,0,1,0,29.42,29.41A29.44,29.44,0,0,0,320.52,109.13Z"/><path d="M191.07,177.43a39.3,39.3,0,1,1,39.29-39.3A39.34,39.34,0,0,1,191.07,177.43Zm0-68.71a29.41,29.41,0,1,0,29.4,29.41A29.44,29.44,0,0,0,191.07,108.72Z"/><path d="M256.14,438.1q-6,0-12.07-.34C136.52,431.86,48.9,342.88,44.56,235.22a210.41,210.41,0,0,1,54-150.12,33.6,33.6,0,0,1,24.9-11.19h265a33.83,33.83,0,0,1,25,11.34A211.6,211.6,0,0,1,256.14,438.1ZM123.49,83.79a23.68,23.68,0,0,0-17.55,7.93,200.54,200.54,0,0,0-51.49,143.1c4.13,102.63,87.65,187.44,190.16,193.07a201.71,201.71,0,0,0,161.6-336,23.92,23.92,0,0,0-17.69-8.07Z"/></svg>