<svg id="Layer_1" data-name="Layer 1" xmlns="http://www.w3.org/2000/svg" viewBox="0 0 512 512"><title>tesla-supercharger-m3</title><path d="M306.16,437.43H205.84a89.18,89.18,0,0,1-89.08-89.07V163.64a89.18,89.18,0,0,1,89.08-89.07H306.16a89.18,89.18,0,0,1,89.08,89.07V348.36A89.18,89.18,0,0,1,306.16,437.43ZM205.84,83a80.72,80.72,0,0,0-80.64,80.63V348.36A80.73,80.73,0,0,0,205.84,429H306.16a80.74,80.74,0,0,0,80.64-80.63V163.64A80.73,80.73,0,0,0,306.16,83Z"/><path d="M391,372.86h-8.44c0-42.54-35-77.14-78-77.14H207.42c-43,0-78,34.6-78,77.14H121c0-47.18,38.76-85.58,86.41-85.58h97.16C352.22,287.28,391,325.68,391,372.86Z"/><path d="M306.16,295.72H205.84c-49.12,0-89.08-38.39-89.08-85.58h8.44c0,42.54,36.17,77.14,80.64,77.14H306.16c44.46,0,80.64-34.6,80.64-77.14h8.44C395.24,257.33,355.28,295.72,306.16,295.72Z"/><path d="M256,201.15a29.54,29.54,0,1,1,29.54-29.54A29.58,29.58,0,0,1,256,201.15Zm0-50.63a21.1,21.1,0,1,0,21.1,21.09A21.12,21.12,0,0,0,256,150.52Z"/><path d="M340.39,201.15a29.54,29.54,0,1,1,29.53-29.54A29.57,29.57,0,0,1,340.39,201.15Zm0-50.63a21.1,21.1,0,1,0,21.09,21.09A21.11,21.11,0,0,0,340.39,150.52Z"/><path d="M180.05,201.15a29.54,29.54,0,1,1,29.54-29.54A29.57,29.57,0,0,1,180.05,201.15Zm0-50.63a21.1,21.1,0,1,0,21.1,21.09A21.11,21.11,0,0,0,180.05,150.52Z"/><path d="M222.25,268.66a29.54,29.54,0,1,1,29.53-29.54A29.57,29.57,0,0,1,222.25,268.66Zm0-50.63a21.1,21.1,0,1,0,21.09,21.09A21.11,21.11,0,0,0,222.25,218Z"/><path d="M222.25,142.08A21.1,21.1,0,1,1,243.34,121,21.12,21.12,0,0,1,222.25,142.08Zm0-33.76A12.66,12.66,0,1,0,234.9,121,12.68,12.68,0,0,0,222.25,108.32Z"/><path d="M298.19,142.08a21.1,21.1,0,1,1,21.1-21.1A21.12,21.12,0,0,1,298.19,142.08Zm0-33.76A12.66,12.66,0,1,0,310.85,121,12.67,12.67,0,0,0,298.19,108.32Z"/><path d="M298.19,268.66a29.54,29.54,0,1,1,29.54-29.54A29.57,29.57,0,0,1,298.19,268.66Zm0-50.63a21.1,21.1,0,1,0,21.1,21.09A21.11,21.11,0,0,0,298.19,218Z"/><path d="M196.93,395.24a38,38,0,1,1,38-38A38,38,0,0,1,196.93,395.24Zm0-67.51a29.54,29.54,0,1,0,29.53,29.53A29.58,29.58,0,0,0,196.93,327.73Z"/><path d="M323.51,395.24a38,38,0,1,1,38-38A38,38,0,0,1,323.51,395.24Zm0-67.51A29.54,29.54,0,1,0,353,357.26,29.58,29.58,0,0,0,323.51,327.73Z"/></svg>