<?xml version="1.0" encoding="utf-8"?>
<svg version="1.1" id="Layer_1" xmlns="http://www.w3.org/2000/svg" xmlns:xlink="http://www.w3.org/1999/xlink" x="0px" y="0px"
	 viewBox="0 0 512 512" style="enable-background:new 0 0 512 512;" xml:space="preserve">
<style type="text/css">
	.st0{stroke:#000000;stroke-width:5;stroke-miterlimit:10;}
</style>
<path d="M255.6,360.7c-13.8,0-25-11.2-25-25c0-13.8,11.2-25,25-25c13.8,0,25,11.2,25,25C280.6,349.5,269.3,360.7,255.6,360.7z"/>
<path d="M138.4,350.1c-6.8,0-12.3-5.5-12.3-12.3c0-6.8,5.5-12.3,12.3-12.3c6.8,0,12.3,5.5,12.3,12.3
	C150.7,344.6,145.2,350.1,138.4,350.1z"/>
<path d="M372.1,347.3c-6.8,0-12.3-5.5-12.3-12.3s5.5-12.3,12.3-12.3c6.8,0,12.3,5.5,12.3,12.3S378.9,347.3,372.1,347.3z"/>
<path d="M434.5,314c-43-34.6-102-55.9-165.3-58.5c-4.7-0.2-9.3-0.3-13.9-0.3c-67.9,0-132.1,21-178.1,57.3c-2.5,2-5,4-7.4,6.1
	c1.6,3,3.4,5.9,5.2,8.8c2.3-2.1,4.8-4.2,7.2-6.2c47.1-38.7,115.2-60,186.4-57c62,2.5,119.7,23.9,160.9,58.6c2.4,2.1,4.8,4.1,7.2,6.3
	c1.8-2.9,3.6-5.8,5.2-8.8C439.5,318.1,437,316,434.5,314z"/>
<path d="M366.5,228.2c-38,0-69-30.9-69-69c0-38,30.9-69,69-69s69,30.9,69,69C435.5,197.2,404.6,228.2,366.5,228.2z M366.5,102.1
	c-31.5,0-57.1,25.6-57.1,57.1s25.6,57.1,57.1,57.1s57.1-25.6,57.1-57.1S398,102.1,366.5,102.1z"/>
<circle cx="366.6" cy="159.2" r="25.7"/>
<path d="M150.4,230c-38,0-69-30.9-69-69c0-38,30.9-69,69-69c38,0,69,30.9,69,69C219.4,199,188.4,230,150.4,230z M150.4,103.9
	c-31.5,0-57.1,25.6-57.1,57.1s25.6,57.1,57.1,57.1s57.1-25.6,57.1-57.1S181.9,103.9,150.4,103.9z"/>
<circle cx="150.4" cy="161" r="25.7"/>
<path d="M423.2,198.6c0,0,20.6-33.2,29.3-1.4c12.6-46.6-22.9-65.9-22.9-65.9L423.2,198.6z"/>
<path d="M92.5,198.6c0,0-21.8-32.7-32.7-0.9c-8.1-60.1,32.7-76.4,32.7-76.4V198.6z"/>
<path class="st0" d="M256,434.4c-113.7,0-206.3-80-206.3-178.4c0-95.7,0-178.4,206.3-178.4S462.3,160.3,462.3,256
	C462.3,354.3,369.7,434.4,256,434.4z M256,83.3C55.4,83.3,55.4,159.5,55.4,256c0,95.2,90,172.7,200.6,172.7S456.6,351.2,456.6,256
	C456.6,159.5,456.6,83.3,256,83.3z"/>
</svg>
